PathFileType	4	(X/Y/Z)	c:\Git\powerlifing_model_clean\simulations\HC835B\Session1\HC835B_OGR_0004\marker_experimental.trc
DataRate	CameraRate	NumFrames	NumMarkers	Units	OrigDataRate	OrigDataStartFrame	OrigNumFrames
240.000000	240.000000	5	38	mm	240.000000	108	217
Frame#	Time	RPSI			LPSI			RASI			LASI			RTH1			RTH2			RTH3			RTH4			RSK1			RSK2			RSK3			RSK4			RCAL1			RCAL2			RCAL3			RST			RPT			RTN			RFMB			RSMB			RVMB			RFMH			RSMH			RVMH			RPM			LTH1			LTH2			LTH3			LTH4			LSK1			LSK2			LSK3			LSK4			LCAL1			LCAL2			LCAL3			LFMH			LVMH			
		X1	Y1	Z1	X2	Y2	Z2	X3	Y3	Z3	X4	Y4	Z4	X5	Y5	Z5	X6	Y6	Z6	X7	Y7	Z7	X8	Y8	Z8	X9	Y9	Z9	X10	Y10	Z10	X11	Y11	Z11	X12	Y12	Z12	X13	Y13	Z13	X14	Y14	Z14	X15	Y15	Z15	X16	Y16	Z16	X17	Y17	Z17	X18	Y18	Z18	X19	Y19	Z19	X20	Y20	Z20	X21	Y21	Z21	X22	Y22	Z22	X23	Y23	Z23	X24	Y24	Z24	X25	Y25	Z25	X26	Y26	Z26	X27	Y27	Z27	X28	Y28	Z28	X29	Y29	Z29	X30	Y30	Z30	X31	Y31	Z31	X32	Y32	Z32	X33	Y33	Z33	X34	Y34	Z34	X35	Y35	Z35	X36	Y36	Z36	X37	Y37	Z37	X38	Y38	Z38	

109	0.45	502.1864013671876	1187.76513671875	-1087.625244140625	393.1833496093751	1175.582153320313	-1074.479248046875	558.0175170898439	1097.684692382813	-1271.51708984375	329.5415344238282	1104.876342773438	-1267.445556640625	627.8120727539064	820.966003417969	-1131.451416015625	609.7377929687501	794.223327636719	-1182.990600585938	615.0380249023439	737.4711303710939	-1129.432006835938	587.8121337890626	712.2633666992189	-1174.947509765625	593.5303344726564	559.6233520507814	-767.4835815429689	601.4237670898439	498.5961914062501	-773.0283203125002	595.5184326171876	526.5197143554689	-719.1828613281251	590.9996948242189	467.0405273437501	-724.5991210937501	539.0907592773439	537.4681396484376	-587.5036010742189	499.5517883300782	528.7915649414064	-559.0803833007814	561.5787353515626	539.4117431640626	-544.2919311523439	497.5212707519532	458.2537536621095	-571.5459594726564	593.1393432617189	482.5481872558595	-544.8932495117189	528.8872680664064	391.1820068359376	-594.9705810546876	522.6571655273439	376.1207885742188	-562.3909912109376	578.5486450195314	368.9890136718751	-574.9598999023439	601.3338623046876	441.2007141113282	-514.1433105468751	519.4612426757814	322.8513488769532	-527.5447998046876	575.8882446289064	314.6606445312501	-530.6509399414064	620.6805419921876	365.3458251953126	-494.9812927246095	570.2806396484376	258.1151428222657	-522.4111328125001	258.4462890625001	817.1744384765627	-1236.70947265625	266.9869995117188	823.9970703125002	-1296.698852539063	271.8184814453126	744.3229980468751	-1280.071411132813	296.3471679687501	752.4617309570314	-1336.2353515625	328.9387817382813	301.2172241210938	-1318.538940429688	323.0353393554688	292.8295288085938	-1371.14990234375	334.2745361328126	251.0807342529297	-1345.946533203125	342.2888183593751	247.7044982910157	-1402.409057617188	400.0000915527345	92.66035461425783	-1325.421508789063	380.8491821289063	50.33633422851564	-1337.4658203125	437.2685852050782	65.80132293701173	-1337.7744140625	441.5078430175782	126.3737487792969	-1549.674194335938	348.3411560058594	63.63975143432619	-1527.527587890625	
110	0.4541666666666667	502.7701110839845	1183.138061523438	-1100.552124023438	393.6308593750001	1170.72216796875	-1087.36279296875	558.2647705078126	1094.213989257813	-1284.937377929688	329.5121154785157	1101.09423828125	-1280.883911132813	628.4240722656251	816.160827636719	-1147.010986328125	610.7109375000001	789.9997558593752	-1198.965087890625	615.7294921875001	732.4517211914064	-1146.101806640625	588.8951416015626	707.8817138671876	-1192.065551757813	594.7528076171876	560.9563598632814	-786.901550292969	602.5425415039064	499.780487060547	-790.9985351562502	596.8427734375001	529.0354614257814	-737.8350830078126	592.1356201171876	469.4648437500001	-741.7479858398439	540.2462768554689	543.6383056640626	-607.7291259765626	500.6603088378907	535.7650756835939	-579.1190795898439	562.5186767578126	547.2700195312501	-564.4989624023439	498.3198852539064	465.0664978027345	-588.8413085937501	594.1791992187501	490.3604431152345	-562.8748168945314	529.6627197265626	397.9235839843751	-609.8984985351564	523.7381591796876	383.4903869628907	-576.4962768554689	579.9651489257814	375.9262390136719	-588.2113037109376	602.1224365234376	450.2870178222657	-530.4882812500001	520.6105957031251	331.4523925781251	-539.8150024414064	576.9702758789064	323.1146240234376	-542.3345947265626	621.4400024414064	375.1843261718751	-508.3085021972657	570.9019165039064	266.6678771972657	-531.7854614257814	259.6942138671876	814.3242187500002	-1251.324096679688	267.4042358398438	821.360046386719	-1311.4599609375	272.4833984375001	741.4941406250001	-1295.139404296875	296.3851623535157	749.9359741210939	-1351.399047851563	330.4364624023438	298.0082092285157	-1328.245849609375	324.2399291992188	288.5126037597657	-1380.724853515625	335.7354431152344	247.2449951171876	-1354.69140625	343.4798583984376	242.9105834960938	-1411.19189453125	401.3341674804689	89.40533447265626	-1331.718139648438	382.0770263671876	46.82838439941407	-1343.2158203125	438.592254638672	62.25492095947267	-1343.501220703125	443.749481201172	119.7017898559571	-1556.32177734375	350.3609619140626	57.39198303222658	-1533.56689453125	
111	0.4583333333333333	503.4502868652345	1178.178466796875	-1113.311645507813	394.2189025878907	1165.732177734375	-1100.260375976563	558.5355834960939	1090.564819335938	-1298.280029296875	329.4391479492188	1097.29150390625	-1294.371215820313	629.0274047851564	811.153015136719	-1162.536010742188	611.7639160156251	785.6387939453127	-1214.979736328125	616.6306762695314	727.5201416015626	-1162.80322265625	590.0807495117189	703.3867187500001	-1209.19775390625	596.0283203125001	562.0414428710939	-806.6311645507815	603.7125244140626	500.7637329101564	-809.277282714844	598.1174926757814	531.3345947265626	-756.7964477539064	593.3253784179689	471.6165161132814	-759.3029174804689	541.3594970703126	549.4365844726564	-628.4822387695314	501.5897521972657	542.6622314453126	-600.0266723632814	563.1601562500001	554.4090576171876	-585.0885009765626	500.8955383300782	471.649383544922	-607.0411987304689	595.0781860351564	497.9119567871095	-581.3272705078126	524.6099243164064	417.1449584960939	-614.4202270507814	524.8109741210939	390.5292053222657	-591.3848876953126	581.6282958984376	382.7122497558594	-602.5755004882814	602.9201049804689	459.0536499023439	-547.4682006835939	521.6690063476564	339.8079528808594	-552.7175292968751	578.1125488281251	331.5032653808594	-554.6604003906251	622.7399291992189	384.8263244628907	-522.6406860351564	573.0454711914064	275.7424011230469	-542.3309326171876	261.0622863769532	811.243103027344	-1266.165283203125	267.7262878417969	818.4561157226565	-1326.381103515625	273.0330200195313	738.6493530273439	-1310.157348632813	296.0259094238282	747.2906494140626	-1366.49853515625	334.1674804687501	293.8279113769532	-1338.704956054688	325.1154174804688	283.9239807128907	-1389.920654296875	336.9464721679688	243.2960205078126	-1363.245239257813	344.6234436035157	237.9161834716797	-1419.570434570313	402.4490966796876	86.10910034179689	-1337.460083007813	383.2956848144532	43.36146926879884	-1348.306396484375	439.7548217773439	58.80615615844728	-1348.603637695313	445.9642944335939	112.5074844360352	-1562.289916992188	352.5758972167969	50.73567581176759	-1538.958740234375	
112	0.4625	504.104949951172	1172.966430664063	-1125.99365234375	394.8761291503907	1160.494873046875	-1113.222412109375	558.8237915039064	1086.697509765625	-1311.607543945313	329.1952514648438	1093.404663085938	-1307.89404296875	629.8352050781251	806.232360839844	-1178.123291015625	612.9322509765626	781.2119750976565	-1230.9951171875	617.6396484375001	722.4414672851564	-1179.5517578125	591.3862304687501	698.8516235351564	-1226.431762695313	597.3258056640626	562.9130859375001	-826.6700439453127	604.8844604492189	501.5912475585939	-827.8883056640627	599.3906250000001	533.3253784179689	-776.1311645507815	594.8308105468751	473.6655883789064	-777.0388183593752	542.2863769531251	554.7156982421876	-649.6253662109376	502.4611816406251	548.8583984375001	-621.2106323242189	563.8646850585939	561.3456420898439	-606.4163818359376	502.0794982910157	477.4748840332032	-625.7898559570314	595.7896118164064	505.1478576660157	-600.2213745117189	525.9062500000001	422.8979797363282	-630.9649047851564	526.1399536132814	396.8108215332032	-607.1967773437501	582.7691650390626	389.0649719238282	-617.4541625976564	603.5192260742189	467.4136047363282	-564.9998779296876	522.6359863281251	347.9376525878907	-566.3527832031251	579.1959838867189	339.7587585449219	-567.7199096679689	622.6701049804689	394.4026794433595	-536.9680786132814	574.2451782226564	284.4989318847657	-553.4183349609376	262.2722167968751	807.9923095703127	-1281.098999023438	267.3803100585938	815.0874023437502	-1341.16845703125	273.7600708007813	735.3779296875001	-1325.571899414063	295.7903442382813	744.3281250000001	-1382.023681640625	334.9853210449219	290.1072082519532	-1347.830810546875	325.9879150390626	279.3601379394532	-1398.911743164063	337.7286071777344	239.3773498535157	-1371.6572265625	345.6164855957032	232.7537231445313	-1427.785400390625	404.0833435058595	84.58127593994142	-1343.074340820313	384.594207763672	41.79720306396485	-1352.489501953125	441.1433105468751	56.59020614624025	-1353.295043945313	448.4893188476564	105.1990051269532	-1567.942138671875	355.0679626464844	43.54948043823243	-1543.671142578125	
113	0.4666666666666667	504.8983459472657	1167.458862304688	-1138.595092773438	395.5789184570314	1155.082397460938	-1126.258056640625	559.1339111328126	1082.657470703125	-1324.95068359375	328.8342285156251	1089.346801757813	-1321.437133789063	630.6049194335939	801.0302734375002	-1193.764282226563	614.1495361328126	776.803405761719	-1247.106201171875	618.6781005859376	717.3128051757814	-1196.411743164063	592.7711181640626	694.2918701171876	-1243.766235351563	598.6055908203126	563.5643310546876	-847.027770996094	606.0696411132814	502.2005615234376	-846.8664550781252	600.6362915039064	535.1391601562501	-795.8223266601565	596.0161132812501	475.5145263671876	-795.3604125976565	543.1658935546876	559.6554565429689	-671.1168823242189	503.1453857421876	554.6799926757814	-642.6979980468751	564.5327758789064	567.9810180664064	-627.9743652343751	503.1141052246095	483.1750793457032	-644.9203491210939	596.5055541992189	511.9879760742189	-619.7379150390626	527.0264282226564	428.448944091797	-647.9848022460939	527.2276000976564	403.0445251464845	-623.3058471679689	583.9209594726564	395.3188781738282	-633.0312500000001	604.1412353515626	475.6080017089845	-583.2333984375001	523.5231933593751	355.6592712402344	-580.7126464843751	580.3667602539064	347.4167175292969	-581.6743774414064	623.1970214843751	403.5620422363282	-552.3605957031251	575.4084472656251	293.0444641113282	-565.2103881835939	263.3867187500001	804.0254516601565	-1296.154296875	267.3012390136719	811.7462158203127	-1356.124633789063	274.5111083984376	731.8494873046876	-1340.973999023438	295.5081481933594	741.1023559570314	-1397.727172851563	335.5111083984376	286.3481140136719	-1356.794067382813	326.8030090332032	274.5910339355469	-1407.852172851563	338.6818542480469	235.0948791503907	-1379.777587890625	346.6192016601563	227.5497741699219	-1435.805786132813	406.1416015625001	85.15859222412111	-1348.26611328125	385.7410888671876	42.34716415405274	-1355.393676757813	442.5608215332032	55.94890594482423	-1356.710571289063	451.6169433593751	97.12558746337893	-1572.8408203125	357.3358764648438	36.10749435424805	-1546.28466796875	
